<?xml version="1.0" encoding="UTF-8" standalone="no"?>
<!DOCTYPE svg PUBLIC "-//W3C//DTD SVG 1.1//EN" "http://www.w3.org/Graphics/SVG/1.1/DTD/svg11.dtd">
<svg id="svg" version="1.1" width="1608" height="1377" xmlns="http://www.w3.org/2000/svg" style="cursor: default;"><path d="M973.500 116.180 C 968.550 116.885,963.218 118.708,961.650 120.231 C 960.083 121.754,956.656 123.000,954.036 123.000 C 951.416 123.000,943.275 132.113,935.944 143.250 C 922.698 163.376,922.609 163.687,921.472 194.129 C 920.768 212.991,921.686 228.549,923.863 234.629 C 928.733 248.226,935.662 288.391,933.921 292.928 C 932.837 295.751,930.750 295.846,925.218 293.326 C 919.068 290.523,916.802 291.080,910.588 296.918 C 904.271 302.852,902.056 303.367,894.867 300.572 C 876.570 293.459,837.004 297.716,815.467 309.116 C 805.115 314.595,755.960 333.000,751.677 333.000 C 745.006 333.000,713.170 345.194,707.893 349.770 C 705.359 351.968,695.234 356.432,685.393 359.691 C 659.371 368.307,623.466 382.033,616.282 386.111 C 612.863 388.053,606.140 395.460,601.344 402.571 C 596.547 409.682,586.929 422.312,579.970 430.638 C 573.011 438.964,565.873 449.089,564.108 453.138 C 557.913 467.353,546.976 485.006,526.018 514.616 C 496.918 555.732,489.187 572.186,484.763 602.429 C 481.079 627.617,501.460 646.512,532.280 646.482 C 563.044 646.451,566.241 644.618,568.611 625.650 C 570.566 610.004,570.191 608.743,559.827 596.094 C 553.872 588.828,549.000 579.551,549.000 575.481 C 549.000 571.410,556.425 556.794,565.500 543.000 C 574.575 529.206,582.000 516.891,582.000 515.633 C 582.000 514.375,599.213 495.785,620.250 474.322 L 658.500 435.298 682.500 429.211 C 703.087 423.990,734.519 421.080,750.000 422.962 C 752.475 423.263,762.338 421.750,771.918 419.600 C 794.965 414.427,796.025 416.098,793.103 453.000 C 791.862 468.675,791.032 488.250,791.259 496.500 C 792.672 547.873,791.767 556.115,781.230 587.908 C 775.471 605.283,769.258 629.566,767.423 641.868 C 763.096 670.878,750.719 692.063,724.679 715.031 C 699.018 737.664,688.722 757.580,682.252 797.099 C 679.605 813.270,676.215 828.844,674.720 831.709 C 670.898 839.030,671.336 851.235,675.513 853.817 C 677.831 855.250,676.760 856.826,672.362 858.453 C 668.440 859.904,663.117 866.796,659.423 875.209 C 655.971 883.069,649.846 893.550,645.812 898.500 C 636.512 909.911,611.575 949.192,603.162 965.683 C 593.896 983.845,577.224 1001.131,565.118 1005.126 C 557.725 1007.566,538.864 1007.949,501.182 1006.425 C 449.084 1004.318,447.134 1004.457,424.116 1011.923 C 411.127 1016.135,395.775 1020.465,390.000 1021.545 C 384.225 1022.625,358.575 1028.632,333.000 1034.894 C 268.635 1050.655,252.135 1052.035,223.636 1044.038 C 211.103 1040.521,198.076 1038.524,194.689 1039.599 C 189.528 1041.237,188.689 1040.414,189.515 1034.527 C 190.354 1028.544,189.051 1027.360,180.750 1026.560 C 175.388 1026.043,170.983 1026.718,170.961 1028.060 C 170.940 1029.402,166.894 1045.350,161.970 1063.500 C 136.864 1156.042,129.125 1211.044,136.433 1245.000 C 140.479 1263.798,148.285 1268.640,151.433 1254.305 C 152.543 1249.249,155.782 1244.972,159.171 1244.086 C 162.377 1243.248,165.000 1240.000,165.000 1236.868 C 165.000 1230.310,181.551 1203.000,185.526 1203.000 C 186.988 1203.000,192.073 1197.263,196.827 1190.250 C 242.927 1122.246,285.124 1102.672,393.000 1099.254 C 418.575 1098.443,453.796 1095.657,471.270 1093.063 C 498.022 1089.090,507.735 1088.915,532.770 1091.953 C 590.750 1098.990,599.279 1099.153,608.244 1093.395 C 618.891 1086.555,684.058 1034.622,703.365 1017.591 C 723.985 999.401,743.620 990.010,761.150 989.954 C 778.584 989.898,779.476 989.316,790.940 970.500 C 800.467 954.863,872.864 881.190,880.291 879.573 C 882.633 879.064,898.639 884.156,915.859 890.889 C 950.291 904.351,950.683 904.335,973.117 888.656 L 987.735 878.440 1019.617 881.589 C 1053.502 884.935,1102.636 896.371,1113.166 903.362 C 1117.190 906.034,1122.519 916.873,1127.754 933.036 C 1137.836 964.161,1146.551 981.506,1168.570 1014.270 C 1177.895 1028.147,1188.282 1044.900,1191.651 1051.500 C 1195.020 1058.100,1203.522 1073.009,1210.544 1084.631 C 1230.500 1117.662,1247.670 1153.439,1252.543 1172.149 C 1258.527 1195.122,1258.504 1223.611,1252.500 1225.915 C 1250.025 1226.865,1248.000 1230.695,1248.000 1234.427 L 1248.000 1241.211 1322.250 1242.621 C 1425.502 1244.581,1473.000 1239.418,1473.000 1226.235 C 1473.000 1221.242,1471.570 1220.536,1464.370 1221.976 C 1453.237 1224.203,1445.574 1218.577,1446.657 1208.973 C 1447.463 1201.832,1446.876 1201.545,1433.434 1202.505 C 1422.008 1203.321,1414.968 1201.370,1395.934 1192.116 C 1368.826 1178.936,1336.558 1159.724,1326.603 1150.835 C 1307.993 1134.221,1275.536 1065.154,1258.069 1005.000 C 1251.736 983.191,1235.247 946.287,1214.031 906.442 C 1211.023 900.792,1204.589 880.546,1199.733 861.449 C 1189.126 819.739,1183.884 812.958,1155.270 803.936 C 1131.163 796.335,1034.240 748.218,1023.356 738.448 C 1012.084 728.329,1002.554 724.078,985.607 721.609 C 977.416 720.416,968.003 717.541,964.690 715.220 C 961.376 712.899,956.236 711.000,953.268 711.000 C 943.465 711.000,940.701 698.500,946.535 680.555 C 956.954 648.509,979.039 597.552,1001.284 554.229 C 1023.500 510.963,1024.292 509.883,1036.150 506.690 C 1042.823 504.893,1053.048 504.196,1058.871 505.141 C 1070.076 506.960,1116.180 536.885,1142.852 559.651 C 1165.128 578.667,1174.890 578.243,1198.188 557.250 C 1221.784 535.989,1240.795 511.424,1261.456 475.500 C 1270.946 459.000,1283.613 438.408,1289.605 429.740 C 1295.597 421.073,1304.824 407.685,1310.109 399.991 C 1320.054 385.511,1326.000 365.051,1326.000 345.313 C 1326.000 336.352,1323.759 331.612,1315.500 323.109 C 1309.725 317.163,1305.000 310.880,1305.000 309.149 C 1305.000 307.417,1302.258 306.000,1298.906 306.000 C 1295.554 306.000,1292.035 303.975,1291.085 301.500 C 1290.135 299.025,1287.478 297.000,1285.179 297.000 C 1282.881 297.000,1281.000 295.650,1281.000 294.000 C 1281.000 286.991,1272.918 292.142,1265.528 303.860 C 1254.856 320.783,1252.058 340.544,1258.239 355.337 C 1263.838 368.737,1264.340 381.808,1259.606 390.947 C 1249.256 410.932,1216.797 449.804,1202.393 459.464 C 1180.106 474.411,1163.858 483.877,1162.696 482.592 C 1162.153 481.991,1158.889 475.425,1155.445 468.000 C 1152.000 460.575,1140.841 445.725,1130.647 435.000 C 1120.453 424.275,1108.502 408.750,1104.090 400.500 C 1086.685 367.957,1073.183 351.145,1057.500 342.493 C 1052.092 339.509,1052.441 339.173,1061.036 339.091 C 1072.451 338.982,1080.000 332.276,1080.000 322.245 C 1080.000 318.215,1081.260 312.574,1082.801 309.709 C 1084.342 306.844,1087.377 297.949,1089.547 289.941 C 1092.438 279.273,1095.698 274.242,1101.746 271.114 C 1106.286 268.767,1110.000 265.156,1110.000 263.090 C 1110.000 259.033,1101.581 245.684,1097.087 242.615 C 1092.180 239.264,1092.445 207.031,1097.461 196.975 C 1103.959 183.950,1103.715 151.973,1097.063 144.622 C 1094.278 141.545,1092.000 137.477,1092.000 135.583 C 1092.000 128.336,1076.417 121.736,1060.821 122.377 C 1052.394 122.723,1034.025 120.982,1020.000 118.508 C 994.466 114.002,990.273 113.792,973.500 116.180 " stroke="none" fill="black" fill-rule="evenodd"/></svg>